<svg xmlns="http://www.w3.org/2000/svg" width="210" height="210" viewBox="155 130 210 210"><path fill="#0343B6" d="M210.188 139.75c7.412 5.93 11.527 12.362 12.625 21.938.52 8.536-1.25 16.315-3.5 24.5-1.37 5.307-1.462 9.478-.313 14.812l.418 2.086c1.023 4.565 2.635 8.666 4.582 12.914l.078-2.082.172-2.73.14-2.708c.61-2.48.61-2.48 2.45-4.308 3.357-1.822 5.52-1.097 9.16-.172 5.528 2.751 9.356 6.025 13.563 10.5 3.913 4.134 7.66 7.344 12.437 10.5 4.026 4.638 5.273 8.944 6 15l3 2v2l1.813.875C275 246 275 246 278 248v2l1.98.605c4.261 1.968 7.667 4.803 11.332 7.708 4.925 3.886 9.793 7.51 15.243 10.633L308 270v2l2.02.656c11.464 5.169 26.345 16.764 31.605 28.281 2.408 7.362 2.528 14.217-.562 21.375-3.36 6.045-8.582 9.528-15.063 11.688-8.753.86-15.765.245-23-5-9.306-8.213-12.572-19.455-16.267-30.884-1.891-5.786-3.967-11.419-6.42-16.991l-.828-1.887c-1.915-4.243-4.132-8.23-6.485-12.238l-2 3c-6.625-.75-6.625-.75-10-3v-2l-1.812-.812C257.002 263 255.587 261.904 254 260v-2h-2v-2h-2v-2l-2.562-.125c-5.078-1.293-8.877-4.346-11.641-8.824C235 243 235 243 235 239h-2v-2l-1.75-.812c-2.306-1.217-4.27-2.491-6.25-4.188v-2l-1.812-.875C221 228 221 228 218 226v-2h-2v-2l-1.602-.695c-3.186-1.734-5.944-3.93-8.773-6.18-.91-.72-.91-.72-1.84-1.453-6.239-4.967-12.275-10.163-18.285-15.402-1.43-1.21-2.915-2.354-4.402-3.493L179 193v-2h-2v-2h-2v-2h-2c-7.15-7.291-11.135-15.423-11.5-25.625.18-5.678 1.316-9.697 4.5-14.375l1.625-2.5L169 143h2v-2q2.371-1.226 4.75-2.437l2.672-1.372c10.316-4.767 22.118-2.738 31.766 2.559M226 219l1 2Zm45 45 1 2Z"/><path fill="#0694FA" d="M222 240c6.294 2.914 11.19 8.581 13.938 14.938 1.347 4.238 1.648 7.853.062 12.062-3.744 5.826-9.22 9.988-14.668 14.14-2.392 1.828-2.392 1.828-4.508 4.094C215 287 215 287 213 287l-.937 1.938C211 291 211 291 210 292c-.362 4.064-.362 4.064 1 7.813 4.47 2.654 8.364 2.55 13.285 1.457a250 250 0 0 0 13.524-4.243c5.495-1.843 10.561-3.07 16.191-1.027 2.712 2.226 4.43 4.86 6 8 .406 8.391.406 8.391-2 12h-2v2c-19.264 15.95-43.464 23.344-68.171 22.27-8.258-.787-14.925-5.351-20.43-11.407-6.055-8.067-7.049-15.973-6.399-25.863 1.316-8.098 5.352-14.373 10-21l1.719-2.473c2.915-4.051 2.915-4.051 4.281-5.527h2l.781-1.703c1.36-2.564 2.947-4.75 4.719-7.047l1.844-2.422L188 261h2v-2h2v-2h2l.66-1.648c1.788-3.138 4.214-5.477 6.778-7.977l1.486-1.484c6.214-6.139 10.528-6.788 19.076-5.891"/><path fill="#09A4FD" d="M332 138c2.952 2.07 5.64 4.265 8 7v2h2c4.959 8.368 5.645 17.505 4 27-3.078 10.323-9.73 19.239-17 27l-1.572 1.68c-7.466 7.904-15.204 15.47-24.428 21.32h-2v2c-8.702 5.445-16.712 7.796-27 6-4.967-2.804-8.63-5.773-11-11-1.002-4.325-.942-8.016.98-12.066 4.76-6.317 12.135-9.727 18.891-13.524 4.178-2.376 7.899-5.119 11.563-8.23C296 186 296 186 298 186c1.816-4.538 1.816-4.538 1-9l-3.543-.043-4.644-.144-2.33-.018c-4.298-.166-6.017-.417-9.471-3.22-3.193-4.087-3.51-6.354-3.012-11.575 1.432-3.154 3.145-6.078 5-9h2v-2h2v-2h2v-2c12.582-10.474 29.425-16.282 45-9"/><path fill="#0AA3FC" d="M279 256c4.659.63 4.659.63 6.316 2.43 2.25 2.097 4.36 2.548 7.309 3.382 5.747 1.811 10.825 4.167 15.375 8.188v2l2.02.656c11.464 5.169 26.345 16.764 31.605 28.281 2.408 7.362 2.528 14.217-.562 21.375-3.36 6.045-8.582 9.528-15.063 11.688-8.753.86-15.765.245-23-5-10.759-9.495-14.04-23.652-18.266-36.812-.735-2.283-.735-2.283-1.84-4.805-1.306-3.48-1.88-7.043-2.519-10.695l-.406-2.245A1302 1302 0 0 1 279 269l-3-1c-.75-3.187-.75-3.187-1-7 1.938-2.937 1.938-2.937 4-5"/><path fill="#0278F3" d="M332 138c2.952 2.07 5.64 4.265 8 7v2h2c4.959 8.368 5.645 17.505 4 27-3.078 10.323-9.73 19.239-17 27l-1.572 1.68c-7.466 7.904-15.204 15.47-24.428 21.32h-2v2c-8.702 5.445-16.712 7.796-27 6-4.967-2.804-8.63-5.773-11-11-1.058-4.569-1.038-8.262 1.402-12.348 3.032-3.654 5.847-6.5 10.598-7.652l-2 4h-3l-.375 1.688C269 209 269 209 267.875 211.313c-1.195 3.67-.87 5.97.125 9.687 2.19 2.583 3.968 4.484 7 6h2l-1-3-4 1v-4c1.941-1.676 1.941-1.676 4.563-3.312 4.106-2.705 7.469-5.497 10.84-9.06 1.554-1.584 3.167-2.943 4.91-4.315 2.708-2.022 2.708-2.022 3.652-4.301 1.177-2.288 2.173-3.08 4.285-4.512 4.172-2.998 8.092-6.233 12-9.562l1.825-1.536c2.701-2.311 4.99-4.482 7.222-7.273L323 175h2l.84-1.734a71 71 0 0 1 2.414-4.344c3.593-5.964 5.567-10.643 4.23-17.61-.999-3.746-.999-3.746-2.484-7.312l-3-1v-4c-3.315-1.105-6.204-1.321-9.687-1.562l-3.575-.254L311 137v2l-2.816 1.137c-7.978 3.174-7.978 3.174-15.247 7.676-2.834 2.11-4.467 2.872-7.937 3.187v-2h2v-2c12.582-10.474 29.425-16.282 45-9"/><path fill="#10AEFD" d="m191.625 136.75 2.313-.062c5.55-.04 5.55-.04 8.085 1.703C203 140 203 140 203 142l2.75 2.063c4.05 3.343 5.9 6.87 7.25 11.937.407 5.532.247 11.023.063 16.563-.324 10.309.011 19.752 2.18 29.866.747 3.525 1.285 7.002 1.757 10.571a340 340 0 0 1-3.5-2.375l-1.969-1.336L210 208v-2l-2.105-.676c-3.574-1.635-6.284-3.942-9.208-6.512l-1.741-1.505a912 912 0 0 1-3.416-2.972 370 370 0 0 0-3.803-3.265c-21.645-18.463-21.645-18.463-22.946-30.011-.22-4.837.84-7.778 3.219-12.059l.438-2.625c.741-3.132 2.07-4.396 4.562-6.375h3v-2c4.553-1.125 8.964-1.218 13.625-1.25"/><path fill="#034AD0" d="M215.688 239.688c6.36.075 9.33 1.403 13.894 5.855 4.253 4.522 6.996 9.215 7.617 15.46-.194 5.23-2.497 8.276-6.027 11.981-3.136 2.91-6.438 5.564-9.84 8.157-2.392 1.827-2.392 1.827-4.508 4.093C215 287 215 287 213 287l-.937 1.938C211 291 211 291 210 292c-.362 4.064-.362 4.064 1 7.813 4.47 2.654 8.364 2.55 13.285 1.457a250 250 0 0 0 13.524-4.243c5.495-1.843 10.561-3.07 16.191-1.027 2.712 2.226 4.43 4.86 6 8 .406 8.391.406 8.391-2 12h-2v2c-19.26 15.947-43.46 23.345-68.163 22.274-7.374-.712-13.222-4.082-18.087-9.649L168 328l1-2h2l1 3 2.16-1.113c3.56-1.112 4.89-.511 8.278.925 3.918 1.55 7.331 2.835 11.562 3.188l2.277.191c16.608.756 37.012-7.163 50.227-17.16C248 314 248 314 250 314c2.264-3.925 3.395-7.858 2.563-12.375L252 300h-2v-3c-4.266.368-7.276.638-11.125 2.563-3.223 1.611-5.321 1.69-8.875 1.437v2c-4.307 1.61-8.104 2.312-12.687 2.563-3.395.191-6.083.36-9.313 1.437-2.34-.278-4.676-.605-7-1-2.138-3.899-2.449-7.315-1.883-11.64 1.744-4.66 5.849-7.643 9.883-10.36h2v-2h2l1-3 4-3 1-3c5.465-5 5.465-5 8-5 2.103-4.206 2.9-8.367 2-13-1.116-1.947-2.336-3.571-3.809-5.262-1.496-2.183-1.807-4.144-2.191-6.738-1.265-.09-1.265-.09-2.555-.184l-3.32-.254c-1.09-.08-2.181-.162-3.305-.246C211 242 211 242 209 241c1.78-1.78 4.276-1.256 6.688-1.312"/><path fill="#0563E2" d="M210.188 139.75c6.37 5.096 10.975 10.79 12.246 19.078.601 5.914.58 11.318-.434 17.172h-2l-.937 2.875C218 182 218 182 217 184c-.127 2.596-.19 5.153-.187 7.75l-.002 2.283c.065 7.113.945 13.96 2.189 20.967l-3 1v3c-4.251-1.984-7.873-4.477-11-8-.437-2.875-.437-2.875 0-5l-4 2c-1-2-1-2-1-4l-2.125-.187c-3.803-1.075-5.92-3.235-8.875-5.813a88 88 0 0 0-4-2l-2-2c-2.069-.643-2.069-.643-4-1v-2h-2v-2h-2v-2h-2c-7.15-7.291-11.135-15.423-11.5-25.625.18-5.678 1.316-9.697 4.5-14.375l1.625-2.5L169 143h2v-2c4.385-3 4.385-3 7-3v2l-3 1-2 3h-2l.188 2.125C171 149 171 149 169.5 151.813c-2.18 4.632-2.182 8.424-.984 13.277 2.83 7.674 8.873 13.187 14.484 18.91l1.922 2.04c6.11 6.371 13.126 11.664 20.39 16.648 3.651 2.508 6.708 5.043 9.688 8.312l1 1-.875-3.687c-1.938-8.91-3.317-17.539-3.145-26.668l.04-2.182c.065-2.966.142-5.931.247-8.896.302-9.049.39-16.948-5.267-24.567-2.646-2.37-2.646-2.37-5-4v-3c-2.453-1.226-4.05-1.114-6.79-1.098l-2.85.01-2.985.025-3.008.014q-3.683.018-7.367.049c7.54-7.54 23.053-2.716 31.188 1.75"/><path fill="#0858D8" d="m236 204 3 1v3l1.621.637c3.302 1.892 5.792 4.487 8.441 7.176.53.52 1.059 1.042 1.604 1.58 2.987 3.002 5.25 5.887 7.334 9.607l2 2c.727 4.777.703 8.795-1.75 13-3.783 3.362-6.168 4.282-11.25 4v2c-3.889-1.261-5.894-2.453-8-6v-2l-3-1c-1.187-2.062-1.187-2.062-2-4h-3l-2-4h-2c-2.187-2.312-2.187-2.312-4-5l1-3 3 1v4l6 1-1.277-2.3-1.66-3.012-1.653-2.989c-1.757-3.362-2.55-5.947-2.535-9.699l-.008-2.062C226 207 226 207 227 204c3.09-1.545 5.672-.584 9 0"/><path fill="#075EE0" d="M306 270h2v2l2.02.656c11.464 5.169 26.345 16.764 31.605 28.281 2.408 7.362 2.528 14.217-.562 21.375-3.36 6.045-8.582 9.528-15.063 11.688-8.753.86-15.765.245-23-5-12.698-11.207-16.636-30.284-21-46 1.895.598 1.895.598 4 2 1.012 2.934 1.012 2.934 1.688 6.438l.699 3.496L289 298l1 3 3 1v5h3l.883 2.45c3.23 8.419 5.515 12.078 13.492 16.363 6.274 2.055 11.43 1.665 17.625-.813v-2h2v-3h2c2.182-7.646 1.915-14.954-1.437-22.187-5.17-9.265-12.59-15.18-21.375-20.891-2.573-2.26-2.91-3.57-3.188-6.922"/><path fill="#2BC6FD" d="M220 244c2.654 1.708 4.828 3.72 7 6l-1 3c-3 1-3 1-7 1-2.632 1.597-2.632 1.597-5.187 3.75l-2.668 2.11c-2.284 2.279-2.475 3.133-3.145 6.14-1.707 1.887-1.707 1.887-3.812 3.688-.688.601-1.375 1.203-2.083 1.824-2.131 1.507-3.614 1.887-6.105 2.488-3.79 3.98-6.396 8.178-9 13l-4-2-.246 1.734c-.987 2.965-2.565 4.372-4.816 6.516l-2.223 2.14L174 297l1 3c-.33 4.63-.684 6.835-4 10 .33 1.894.33 1.894 1 4l2 8c-3-1-3-1-4.168-2.75-3.503-7.73-3.924-13.534-1.27-21.625 3.722-9.33 9.324-16.82 16.137-24.113 2.28-2.49 4.386-5.06 6.488-7.7 3.902-4.821 8.025-9.397 12.25-13.937l1.866-2.012 1.756-1.87 1.572-1.677c3.19-3.066 7.204-3.146 11.369-2.316"/><path fill="#0358DE" d="M215.688 239.688c6.36.075 9.33 1.403 13.894 5.855 4.253 4.522 6.996 9.215 7.617 15.46-.194 5.23-2.497 8.276-6.027 11.981-3.136 2.91-6.438 5.564-9.84 8.157-2.392 1.827-2.392 1.827-4.508 4.093C215 287 215 287 213 287l-.937 1.938C211 291 211 291 210 292c-.362 4.064-.362 4.064 1 7.813 4.47 2.654 8.364 2.55 13.285 1.457a250 250 0 0 0 13.524-4.243c5.495-1.843 10.561-3.07 16.191-1.027 2.712 2.226 4.43 4.86 6 8 .406 8.391.406 8.391-2 12h-2v2l-4 2v-4h3v-3h2l2-7h-2c-3-4.385-3-4.385-3-7h-2v-2c-6.132.351-10.502 1.126-16 4-3.375.188-3.375.188-6 0v2c-4.307 1.61-8.104 2.312-12.687 2.563-3.395.191-6.083.36-9.313 1.437-2.34-.278-4.676-.605-7-1-2.138-3.899-2.449-7.315-1.883-11.64 1.744-4.66 5.849-7.643 9.883-10.36h2v-2h2l1-3 4-3 1-3c5.465-5 5.465-5 8-5 2.103-4.206 2.9-8.367 2-13-1.116-1.947-2.336-3.571-3.809-5.262-1.496-2.183-1.807-4.144-2.191-6.738l-2.555-.184-3.32-.254c-1.09-.08-2.181-.162-3.305-.246C211 242 211 242 209 241c1.78-1.78 4.276-1.256 6.688-1.312"/><path fill="#064ACD" d="M336 142c2 1.375 2 1.375 4 3v2h2c4.959 8.368 5.645 17.505 4 27-3.078 10.323-9.73 19.239-17 27l-1.572 1.68c-7.466 7.904-15.204 15.47-24.428 21.32h-2v2c-8.702 5.445-16.712 7.796-27 6-4.967-2.804-8.63-5.773-11-11-1.058-4.569-1.038-8.262 1.402-12.348 3.032-3.654 5.847-6.5 10.598-7.652l-2 4h-3l-.375 1.688C269 209 269 209 267.875 211.313c-1.195 3.67-.87 5.97.125 9.687 2.19 2.583 3.968 4.484 7 6 14.5 1 25.244-8.406 35.625-17.437a920 920 0 0 0 5.627-4.999 732 732 0 0 1 4.889-4.33c4.5-3.655 4.5-3.655 7.859-8.234h2v-3l2.188-1.5c4.8-4.267 7.694-11.16 8.812-17.5.292-7.042.322-14.062-1-21l-4-1z"/><path fill="#40D5FD" d="m191.625 136.75 2.313-.062c5.518-.04 5.518-.04 8.023 1.578 1.14 1.903 1.663 3.553 2.039 5.734-4.293 2.981-8.525 5.87-13.25 8.125-3.312 1.58-5.928 3.51-8.75 5.875l-2.75 1.563c-2.553 1.299-2.553 1.299-3.25 4.437-.39 4.59.095 6.49 3 10v3l3 1 1 6c-6.833-5.438-14.288-12.058-16-21-.612-5.61.222-9 3-14l.438-2.625c.741-3.132 2.07-4.396 4.562-6.375h3v-2c4.553-1.125 8.964-1.218 13.625-1.25"/><path fill="#0270ED" d="m216.063 241.25 2.597.203c2.663.622 3.63 1.462 5.34 3.547l-1 2-3-2c-3.999-.61-6.492-.923-9.984 1.215-2.145 1.823-4.082 3.74-6.016 5.785l-2.117 2.234c-5.729 6.239-11.18 12.732-16.6 19.24a295 295 0 0 1-3.513 4.085c-7.496 8.83-14.255 19.888-14.196 31.785.854 5.326 3.585 10.122 6.426 14.656l2 1-1 4h-4v-3l-1 2c-1.863-.262-1.863-.262-4-1-1.23-1.707-1.23-1.707-2.187-3.812l-.981-2.083c-3.205-8.11-2.724-17.425.059-25.601 2.151-4.856 5.067-9.167 8.109-13.504l1.719-2.473c2.915-4.051 2.915-4.051 4.281-5.527h2l.781-1.703c1.36-2.564 2.947-4.75 4.719-7.047l1.844-2.422L188 261h2v-2h2v-2h2l.664-1.645c1.78-3.14 4.171-5.52 6.711-8.042l1.46-1.51c4.446-4.45 7.122-5.105 13.227-4.553M171 324l1 2Z"/><path fill="#35CBFB" d="m290 272 .25 2.375c.475 2.68.475 2.68 2.375 3.813 3.111 1.064 6.176 2.042 9.375 2.812l2-1 .375 2.438L305 285l2 1c-.875 5.75-.875 5.75-2 8h2v8l4-2c-1.225 2.896-2.463 4.485-4.687 6.813-2.668 3.02-2.668 3.02-2.313 6.812.935 3.156 1.795 4.978 4 7.375l-1 2c-2.823-.302-3.938-.94-6-2.937-3.625-5.551-5.707-11.274-6.863-17.782-1.032-5.387-2.954-10.11-5.2-15.094-4.36-9.808-4.36-9.808-4.937-14.187 2-1 2-1 6-1"/><path fill="#0EAFFB" d="m312 184 2 1q-2.836 2.663-5.687 5.313l-1.608 1.513c-2.405 2.228-4.548 4.085-7.412 5.717-2.81 1.785-3.62 3.6-5.293 6.457-1.923 2.11-4.01 4.022-6.125 5.938l-1.739 1.592c-4.415 3.975-9.01 7.45-14.136 10.47l1 2h3l1 2h9c-3.716 2.477-6.693 2.653-11 2-3.728-1.83-5.586-3.399-7.937-6.812-1.7-5.096-.675-8.685 1.312-13.563C270 205 270 205 273 204l2-3c1.848-.844 1.848-.844 4.063-1.5l2.44-.762q2.384-.705 4.774-1.383c5.171-1.554 9.168-3.76 13.582-6.863 3.825-2.666 7.702-5.012 12.141-6.492"/><path fill="#2BC4FD" d="m325 141-1 2c-2.062.625-2.062.625-4 1l-1-2-1.469 1.758c-3.906 4.552-7.742 8.453-12.66 11.894-1.781 1.283-3.329 2.667-4.933 4.16-3.44 2.562-5.725 2.798-9.938 3.188q-2.012.975-4 2c-3.187.688-3.187.688-6 1-1-1-1-1-1.062-4.062L279 159h2v-6h2v-2l1.652-.445c4.456-1.326 8.091-2.88 11.91-5.555 8.737-6.066 18.312-8.58 28.438-4"/><path fill="#05A4FC" d="M257 226c2.213 1.7 2.912 2.533 3.434 5.305.006 4.259 0 6.95-2.184 10.695-3.783 3.362-6.168 4.282-11.25 4v2c-3.3-.917-4.935-1.931-7.312-4.437-2.33-4.919-2.504-9.208-1.688-14.563 5.215-9.125 10.76-6.895 19-3"/><path fill="#0846B6" d="M220 176c1.326 3.672.614 6.013-.5 9.688-1.474 5.538-1.7 9.74-.5 15.312l.418 2.086c1.023 4.565 2.635 8.666 4.582 12.914l.148-2.152.227-2.786.21-2.777c.138-.754.274-1.508.415-2.285l2-1-.14 1.871c-.288 6.746 1.076 11.189 4.14 17.129a296 296 0 0 1 2 5l-6-1-1-4h-2l.938 1.813C226 228 226 228 227 231h2l1.938 2c1.942 2.348 1.942 2.348 5.062 2a760 760 0 0 1 2.063 5.875l1.16 3.305C240 247 240 247 239 249c-4-5.5-4-5.5-4-10h-2v-2l-1.75-.812c-2.306-1.217-4.27-2.491-6.25-4.188v-2l-1.812-.875C221 228 221 228 218 226v-2h-2v-2l-1.602-.695c-3.186-1.734-5.944-3.929-8.773-6.18l-1.835-1.453a568 568 0 0 1-13.477-11.11l-1.781-1.501c-2.887-2.478-5.411-4.891-7.532-8.061l6 1-1 2 3.313 1.813c2.144 1.205 3.602 2.092 5.25 3.937 2.283 1.986 4.543 1.443 7.437 1.25l-1 4 5-2-.312 2.727c-.012 3.404-.012 3.404 2.5 5.609l2.812 2.039 2.813 2.086L216 219v-3l2-1-.437-2.465C213.25 185.914 213.25 185.914 220 176m6 43 1 2Z"/><path fill="#0265EB" d="M306 270h2v2l2.012.648c4.018 1.818 7.301 4.315 10.8 6.977l2.151 1.631c14.27 10.967 14.27 10.967 16.037 18.744l1.027 1.832c1.202 2.678 1.205 4.68 1.16 7.606l-.019 2.808c-.165 2.7-.448 5.147-1.168 7.754-2.062 1.313-2.062 1.313-4 2l-3-3-1 3h-2v-2h2c2.182-7.646 1.915-14.954-1.437-22.187-5.17-9.265-12.59-15.18-21.375-20.891-2.573-2.26-2.91-3.57-3.188-6.922"/><path fill="#064CC9" d="m273 201 2 1-2 3h-3l-.375 1.688C269 209 269 209 267.875 211.313c-1.195 3.67-.87 5.97.125 9.687 2.19 2.583 3.968 4.484 7 6 11.382.785 19.057-4.429 28-11 1.029-.97 2.045-1.957 3-3l2 1-1 3h-2v4h-3l-.18 2.293C301 226 301 226 298.805 227.801c-8.118 4.188-15.697 5.79-24.805 4.199-4.967-2.804-8.63-5.773-11-11-.82-3.541-.887-6.467 0-10 2.659-4.238 5.857-7.238 10-10m39 7 2 1-4 4-2-1z"/><path fill="#188AB5" d="m216.063 241.25 2.597.203c2.663.622 3.63 1.462 5.34 3.547l-1 2-3-2c-3.999-.61-6.492-.923-9.984 1.215-2.145 1.823-4.082 3.74-6.016 5.785l-2.117 2.234C192.823 264.1 184.286 274.482 176 285c-1-2-1-2-.285-4.469 2.995-7.426 6.57-13.83 12.285-19.531h2v-2h2v-2h2l.664-1.645c1.78-3.14 4.171-5.52 6.711-8.042l1.46-1.51c4.446-4.45 7.122-5.105 13.227-4.553"/><path fill="#0457D7" d="m280 155 1 4h-2c1.002 3.793 1.81 6.715 4 10 3.01.732 3.01.732 6.438 1.063 6.257.734 6.257.734 9.562 2.937 1.326.682 2.658 1.352 4 2a853 853 0 0 1-.437 4.313l-.247 2.425C302 184 302 184 301 187l-3 2-1 3h-5v3h-2v2l-2.687.875c-3.236 1.04-3.236 1.04-5.938 2.313-2.69.92-3.722.601-6.375-.188l3.07-1.793 4.055-2.394 2.016-1.174c3.29-1.952 6.324-3.939 9.226-6.44C296 186 296 186 298 186c1.816-4.538 1.816-4.538 1-9l-3.543-.043-4.644-.144-2.33-.018c-4.298-.166-6.017-.417-9.471-3.22-3.183-4.073-3.438-6.38-3.012-11.575 1.127-2.54 2.472-4.66 4-7"/><path fill="#066DE7" d="M267 246c3.166.565 6.041 1.767 9 3v2l2.75.813c3.025 1.105 4.748 2.25 7.25 4.187l2.438.875c3.262 1.432 5.168 3.526 7.562 6.125-4.402-.667-8.009-2.081-12-4l-1-2c-2.437.27-2.437.27-5 1-2.43 3.644-2.162 5.712-2 10l4 1c2.296 9.41 2.296 9.41 2 14-2.018-3.027-3.718-6.107-5.437-9.312l-1.81-3.364a237 237 0 0 1-3.269-6.422c-1.89-3.698-4.167-7.084-6.472-10.535C264 251 264 251 264.77 248.757 266 247 266 247 267 246"/><path fill="#0378EF" d="M218 274c0 3 0 3-2.375 5.688C213 282 213 282 211 282v2a149 149 0 0 1-4.937 3.563c-3.727 2.829-3.727 2.829-5.985 6.789-.454 3.99-.203 7.774.922 11.648l1.75-.562c2.476-.482 3.852-.077 6.25.562l2-1c2.08-.207 4.164-.367 6.25-.5 4.314-.278 8.495-.726 12.75-1.5v-2l1.863-.367 2.45-.508 2.425-.492c2.515-.578 2.515-.578 5.262-2.633 2.043-.195 2.043-.195 4.188-.125L250 297v3l-3.297.742c-3.457.862-6.755 1.96-10.094 3.203l-2.902 1.075q-2.94 1.098-5.867 2.234c-7.987 2.919-16.662 4.587-24.903 1.558-3.363-2.075-4.637-3.074-5.937-6.812-.46-5.865 1.07-10.292 4.77-14.805 4.978-4.9 10.638-9.028 16.23-13.195"/><path fill="#0675E6" d="M210.313 139.938 213 142l2.25 1.688c3.797 5.017 4.361 12.2 3.75 18.312-1.375 1.563-1.375 1.563-3 3-1.2 3.1-1.2 3.1-2 6h-1l-.043-2.93c-.304-8.299-.928-15.104-5.957-22.07-2.646-2.37-2.646-2.37-5-4v-3c-2.453-1.226-4.05-1.114-6.79-1.098l-2.85.01-2.985.025-3.008.014q-3.683.018-7.367.049c7.56-7.56 23.267-2.768 31.313 1.938"/><path fill="#0347CE" d="M250 297h2v2h2c3 4.385 3 4.385 3 7h2l-2 7h-2v3h-3v5l-13 2v3l-3 1-2 3c-2.934 1.168-2.934 1.168-6.437 2.188l-3.497 1.042C221 334 221 334 218 334l1-2h4l.59-2.812C225 326 225 326 227.94 324.313l3.621-1.313c5.417-2.068 10.082-4.465 14.766-7.898C248 314 248 314 250 314c2.264-3.925 3.395-7.858 2.563-12.375L252 300h-2z"/><path fill="#64E5FB" d="M312 140v3h-2l-2 4h-2l-2 4h-3l-1 3h-4v2c-4.537 1.452-8.18 2.235-13 2 .34-2.887.575-4.527 2-7 2.35-1.585 4.729-2.67 7.324-3.805 3.217-1.437 6.05-3.244 8.985-5.18 3.566-2.14 6.64-2.105 10.691-2.015"/><path fill="#8CF3FD" d="m194 139 1 3-2.062 1.125c-2.378 1.517-4.097 2.913-6.125 4.813-3.544 3.145-7.234 4.652-11.676 6.203-2.303.763-2.303.763-4.137 2.859h-3c.246-4.178.525-6.432 3.25-9.687L174 145l2.5-2.187c5.73-4.155 10.63-4.053 17.5-3.813"/><path fill="#0F89EA" d="M282 283c1.895.598 1.895.598 4 2 1.012 2.934 1.012 2.934 1.688 6.438L289 298l1 3 3 1v5h3l.883 2.45c3.224 8.403 5.513 12.03 13.43 16.363 4.39 1.413 8.124 1.466 12.687 1.187v3c-4.527 1.51-9.064 1.774-13.5 0l-1.5-1v-3l-7-1-1-3-1.918-.453C296 321 296 321 294.762 319.453c-5.623-11.531-9.335-24.11-12.762-36.453"/><path fill="#60E1FC" d="m288 281 9 2v2l5 1v19l-4 1c-3.269-4.527-5.357-8.948-7.25-14.187l-.812-2.155C288.827 286.646 288 284.236 288 281"/><path fill="#BAFBFE" d="M219 244c-2.787 4.717-5.213 7.128-10 10l-3.125 2.125C203 258 203 258 200.75 259c-1.898.865-1.898.865-2.629 2.828-1.287 2.494-2.779 3.992-4.809 5.922-6.565 6.435-12.1 13.138-17.204 20.77-1.846 2.745-3.645 5.259-6.108 7.48 3.372-14.236 18.254-27.072 27.832-37.61a587 587 0 0 0 4.617-5.156l2.426-2.734 2.18-2.469c3.914-4.087 6.454-4.238 11.945-4.031"/><path fill="#0D7FEB" d="M178 138v2l-3 1-2 3h-2l.188 2.125C171 149 171 149 169.5 151.813c-2.24 4.759-2.359 8.704-.668 13.593 1.488 3.432 3.09 6.476 5.168 9.594h-2v7l-2-1c-.625-2.562-.625-2.562-1-5h-2v-5l-1.937-.375L163 170c-2.44-4.88-1.82-12.404-.21-17.496A45.5 45.5 0 0 1 166 147l1.625-2.5L169 143h2v-2c4.385-3 4.385-3 7-3"/><path fill="#0FB0FC" d="M232.5 205.938c5.286 1.604 8.602 5.26 12.5 9.062l-2 1 .625 1.75c.476 2.856.023 3.896-1.625 6.25-2.125 1.25-2.125 1.25-4 2-5.571-5.143-5.571-5.143-6-9h-2c-1.165-3.494-1.136-6.337-1-10 1-1 1-1 3.5-1.062"/><path fill="#65DCF6" d="M255 225v3h-2v5l-3 1v2c-1.75 1.125-1.75 1.125-4 2l-4-2c-2.117.892-2.117.892-4 2-.624-7.953-.624-7.953 1.75-11.937 5.66-5.189 8.574-3.845 15.25-1.063"/><path fill="#55E2FF" d="m292 198 1 3c-8.2 5.763-16.75 10.18-26 14 .943-6.914.943-6.914 3-10l3-1 2-3c5.711-3.213 10.533-3.351 17-3"/><path fill="#099BF2" d="m282 260-1 5h-2l.823 1.49C295.575 295.207 295.575 295.207 295 307h-2l-.25-2.25c-.512-2.854-.512-2.854-2.7-4.508-2.62-2.865-2.932-5.074-3.613-8.867-.56-3.403-.56-3.403-1.437-6.375l-3-2c-.946-3.612-1.529-7.23-2.156-10.91L279 269l-3-1-1-7c3.625-2.125 3.625-2.125 7-1"/><path fill="#54D8F8" d="M219 244c3.265 1.804 4.89 2.834 7 6l-3.687.25c-4.15.512-6.242 1.85-9.313 4.75-3.75 3-3.75 3-6 3v2c-1.757 2.312-2.659 2.942-5.562 3.438-.805.185-1.61.37-2.438.562-1.125 1.833-1.125 1.833-2 4-2.356 2.66-3.592 3.864-7 5q-1.41 2.671-2.816 5.344c-1.857 2.598-4.161 3.038-7.184 3.656 4.192-4.944 8.487-9.777 12.852-14.57 1.459-1.65 2.87-3.343 4.238-5.07 4.24-5.239 9.61-8.589 15.472-11.735 2.785-1.856 4.475-3.935 6.438-6.625"/><path fill="#117CCB" d="m177 274 2 1c-2.09 6.772-4.184 13.003-8 19l-1-2h-3v4h-2c-1.18 3.848-1.332 7.758-1.562 11.75l-.131 2.113q-.158 2.569-.307 5.137h2v7l2 1c.625 2.563.625 2.563 1 5-4.43-3.514-5.893-7.617-7-13-1.675-16.822 5.998-28.214 16-41"/><path fill="#0259DB" d="M215.688 239.688c5.313.044 8.254.66 12.312 4.312l2.25 1.813c2.293 2.866 2.898 5.648 3.75 9.187l1 2c.07 1.54.085 3.083.063 4.625l-.028 2.477L235 266h-2v2l-4 1-2-3 2-3c.577-4.95.602-7.673-2.437-11.687l-1.372-1.575c-1.496-2.183-1.807-4.144-2.191-6.738l-2.555-.184-3.32-.254c-1.09-.08-2.181-.162-3.305-.246C211 242 211 242 209 241c1.78-1.78 4.276-1.256 6.688-1.312"/><path fill="#017DF5" d="m296 170 12 1c1.648 4.944 1.536 8.635-.375 13.5-3.878 6.158-10.953 10.053-17.625 12.5v-2h2v-3h5l.313-1.937L298 188l3-1 1-12-7-2z"/><path fill="#0262E9" d="M186 190c5.228 1.991 8.868 4.266 13.125 8 3.509 3.062 6.882 5.623 10.875 8 2.313 2.688 2.313 2.688 4 5h-9v-5l-4 2c-1-2-1-2-1-4l-2.125-.187c-3.803-1.075-5.92-3.235-8.875-5.813-2.216-1.279-2.216-1.279-4-2z"/><path fill="#0645CC" d="M331 196c0 3.643-.591 3.976-3.078 6.477l-2.004 2.021-2.168 2.127-2.184 2.166A135.7 135.7 0 0 1 303 224l-1-3h3v-4a480 480 0 0 1 4.438-4.375c2.531-2.426 2.531-2.426 4-4.812 2.137-2.48 4.5-2.815 7.562-3.813l1-3h2v-2l2.938-.937c2.903-.758 2.903-.758 4.062-2.063"/><path fill="#0E5AA0" d="M332 138c2.625 2.188 2.625 2.188 4 4-6.543-1.796-6.543-1.796-9.312-3.031-3.217-1.16-6.092-1.387-9.5-1.594l-3.52-.227L311 137v2l-2.816 1.137c-7.978 3.174-7.978 3.174-15.247 7.676-2.834 2.11-4.467 2.872-7.937 3.187v-2h2v-2c12.832-10.682 29.132-15.92 45-9"/><path fill="#0A7CE3" d="M306 270h2v2l2.004.645c4.06 1.837 7.387 4.366 10.933 7.043l2.092 1.529c4.67 3.501 8.314 7.233 11.971 11.783-4.27.078-6.805-.005-10.148-2.79a295 295 0 0 1-4.403-4.73c-3.385-3.428-7.234-5.94-11.262-8.558-2.572-2.26-2.91-3.57-3.187-6.922"/><path fill="#37CFFD" d="M309 139h9c0 2 0 2-1.187 3.25L315 144q-1.29 1.587-2.562 3.188L310 150h-2v2c-3.675 2.84-5.269 4-10 4v2c-3.192 1.893-5.44 2.2-9.125 2.063-3.578-.202-3.578-.202-6.875.937l1-4 13-1v-2l1.938-.375L300 153l1-2 1.86-.898c2.438-1.255 3.666-2.611 5.39-4.727l1.578-1.914L311 142z"/><path fill="#082B7F" d="M250 322c-11.85 9.537-31.313 18.18-46.64 18.098l-3.243-.01-3.367-.026-3.414-.013q-4.168-.018-8.336-.049v-1h23v-2h8v-2q3.09-1.226 6.188-2.437l3.48-1.372C229 330 229 330 231.801 329.527c2.574-.353 2.574-.353 4.199-3.527h3v-3c6.964-2.277 6.964-2.277 11-1"/><path fill="#107CDE" d="M228 205h11v3l1.61.617c3.419 1.978 5.903 4.686 8.64 7.508l1.68 1.707q2.04 2.079 4.07 4.168l-1 3-2.062-1.062c-3.647-1.164-6.223-.666-9.938.062 0-2.847.43-5.225 1-8 .223-2.081.223-2.081-1.32-3.473-3.809-3.355-6.408-5.27-11.68-5.527l-1 5-2-1z"/><path fill="#0949C7" d="M232 250c3.132 2.563 4.114 5.085 5 9 .103 6.364-1.472 9.412-5.828 13.984-3.136 2.91-6.438 5.564-9.84 8.157-2.283 1.82-4.309 3.756-6.332 5.859l-2-1 1-3 3-1 1-3h2v-2l2-2q1.349-2.04 2.625-4.125l1.352-2.195L227 267l6 1v-2h2a340 340 0 0 0-.375-4.312c-.07-.801-.14-1.602-.21-2.426-.31-2.534-.31-2.534-2.415-5.262z"/><path fill="#1479AD" d="M192 257h2c-.785 7.978-3.929 11.66-9.445 17.336-3.193 3.33-5.901 6.9-8.555 10.664-1-2-1-2-.285-4.469 2.995-7.426 6.57-13.83 12.285-19.531h2v-2h2z"/><path fill="#0169E8" d="M218 274c0 3 0 3-2.375 5.688C213 282 213 282 211 282v2a149 149 0 0 1-4.937 3.563c-3.727 2.829-3.727 2.829-5.985 6.789-.454 3.99-.203 7.774.922 11.648l1.75-.562c2.25-.438 2.25-.438 4.063.062 3.188.729 5.998.052 9.187-.5-2.314 2.743-3.884 3.459-7.437 3.813l-2.31.269c-2.615-.095-4.045-.704-6.253-2.082-2.658-3.025-3.252-5.392-3.062-9.312C198.787 286.462 209.51 280.326 218 274"/><path fill="#23BEFA" d="m286 205 2 1-1 2-3 1-1.812 2.813c-2.392 3.484-4.512 5.153-8.188 7.187h-3l-1 3-3-1-1-7 1.938-.75c5.268-2.15 10.465-4.408 15.5-7.062z"/><path fill="#0353DB" d="m213 186 3 1 .168 1.817q.383 4.123.77 8.245l.263 2.858c.475 5.052 1.027 10.065 1.799 15.08l-3 1v3c-3.941-1.668-6.79-4.227-10-7 1.625-1.125 1.625-1.125 4-2 3.25.875 3.25.875 6 2l-.402-1.758A847 847 0 0 1 214 203l-.625-2.875c-.565-4.704-.45-9.393-.375-14.125"/><path fill="#0957D2" d="M260.938 252.625c5.542 3.695 6.8 8.173 8.062 14.375-4.402-.176-7.187-.732-10.375-3.75-2.355-2.613-3.525-4.637-3.625-8.25 1.405-2.81 2.952-3.338 5.938-2.375"/><path fill="#014DD7" d="m312 208 2 1-4 4-2-1zm-6 5 2 1-1 3h-2v4h-3l-.187 1.895C301 225 301 225 298.75 226.012l-2.75.675c-3.286.622-3.286.622-6 2.313-2 .04-4 .043-6 0l-1-2 3.25-1c7.168-2.667 14.566-7.339 19.75-13"/><path fill="#082468" d="M254 296c2.729 2.201 4.432 4.864 6 8 .406 8.391.406 8.391-2 12h-2v2l-4 2v-4h3v-3h2l2-7h-2c-3-4.385-3-4.385-3-7h-2v-2c-6.72.33-6.72.33-13 2.5-4.214 2.107-8.345 2.233-13 2.5 2.823-1.882 5.204-2.92 8.375-4.062l2.836-1.036c5.693-1.842 10.966-2.653 16.789-.902"/><path fill="#057DE7" d="m246 303 2 4c-1 1.438-1 1.438-3 3a115 115 0 0 1-8 1 530 530 0 0 0-5 1c-5.15.854-10.11 1.183-15.312 1.188l-2.167.037c-1.842.005-3.683-.102-5.521-.225l-2-2 2.238.07c13.524.24 24.36-3.122 36.762-8.07"/><path fill="#32C6FC" d="M314 185c-6.529 6.308-12.637 12.177-21 16l-1-3c-2.015-.733-2.015-.733-4-1l2.414-1.137c6.867-3.197 6.867-3.197 12.961-7.613 3.11-2.665 6.62-5.253 10.625-3.25"/><path fill="#072D88" d="M264 229c3 4 3 4 3.5 7.625L268 240l3 2v2l1.813.875C275 246 275 246 278 248v2l2.188.688c3.344 1.56 5.328 3.615 7.812 6.312-3.598-1.336-6.743-2.975-10-5l-2-1v-2l-2.25-.375c-2.551-.58-4.477-1.362-6.75-2.625l-1 2-2-3-2 1 1-5h2z"/><path fill="#0D55A0" d="m299 176 3 1c.125 6.625.125 6.625-1 10l-3 2-1 3h-5v3h-2v2l-2.687.875c-3.236 1.04-3.236 1.04-5.938 2.313-2.69.92-3.722.601-6.375-.188l3.07-1.793 4.055-2.394 2.016-1.174c3.29-1.952 6.324-3.939 9.226-6.44C296 186 296 186 298 186c1.778-4.97 1.778-4.97 1-10"/><path fill="#1AB9FC" d="m255 225 4 4h-2l-.687 3.25c-1.46 4.17-2.643 5.423-6.313 7.75-3.29 1.097-4.713.8-8 0l1 6c-2.799-2.528-4.458-4.204-5-8 1.688-1.625 1.688-1.625 4-3 2.563.875 2.563.875 5 2l3-1v-2l2-1c.656-2.527.656-2.527 1-5h2z"/><path fill="#09388E" d="M336 142c2 1.375 2 1.375 4 3v2h2c3.611 6.094 4.41 11.17 4.438 18.125l.029 2.314c-.077 5.214-1.135 8.897-3.467 13.561h-1l.016-2.184q.029-4.94.046-9.879l.026-3.435c.016-5.61-.07-10.978-1.088-16.502l-4-1z"/><path fill="#055CE1" d="M267 246c3.172.317 6.07 1.78 9 3v2l2 1-5 1c-1.099 3.297-.871 4.405-.062 7.688l.59 2.449L274 265c-5.115-4.547-7.843-9.528-10-16 1.25-1.562 1.25-1.562 3-3"/><path fill="#ADFBFE" d="M303 144c-.137 2.262-.137 2.262-1 5-2.582 2.02-2.582 2.02-5.812 3.813l-3.208 1.832C290 156 290 156 286 156c2.333-7.185 9.06-13.425 17-12"/><path fill="#50D2FE" d="M248 301c-9.089 7.574-20.352 10.67-32 10 4.428-2.952 9.308-4.378 14.313-6.125l3.13-1.129 3.045-1.066 2.767-.977c3.01-.77 5.65-.825 8.745-.703"/><path fill="#0D48AB" d="M257 249c3.649.25 4.943.947 7.676 3.477q1.337 1.558 2.637 3.148l1.376 1.543c2.492 2.99 3.304 4.76 3.666 8.668C272 269 272 269 271 270c-4.098-.38-6.54-.693-10-3l1-2 6 1c-1.914-7.508-1.914-7.508-7-13-3.168-.334-3.168-.334-6 0z"/><path fill="#11B1FA" d="m173 298 2 2c-.252 4.629-.696 6.846-4 10 .33 1.894.33 1.894 1 4l2 8c-3-1-3-1-4.168-2.75-2.593-5.722-3.23-9.977-2.832-16.25h3l.938-1.937C172 299 172 299 173 298"/><path fill="#092C79" d="M220 176c1.326 3.672.614 6.013-.5 9.688-1.473 5.536-1.704 9.742-.5 15.312l.418 2.016c1.175 5.102 2.866 10.042 4.582 14.984-1.895-.242-1.895-.242-4-1-1.012-1.82-1.012-1.82-1.687-4.125l-.7-2.258c-2.192-9.357-4.133-22.768.387-31.68z"/><path fill="#89F2FE" d="m197 259 2 3-1.941 1.906c-7.843 7.76-14.82 15.45-20.952 24.615-1.845 2.745-3.644 5.258-6.107 7.479 2.622-11.07 12.194-19.931 19.493-28.271 2.522-2.893 5.014-5.811 7.507-8.729"/><path fill="#026AEB" d="M297 315h2l1.625 2.688c3.052 4.86 8.034 7.532 13.375 9.312 1.561.067 3.125.085 4.688.063l2.449-.028L323 327v3c-4.527 1.51-9.064 1.774-13.5 0l-1.5-1v-3l-7-1-1-3-2-1c-1-1-1-1-1.062-3.562z"/><path fill="#DCFEFD" d="M186 141c-2.1 5.667-7.801 9.33-13 12h-3c.195-4.194.736-5.724 3.688-8.812C177.936 141.382 181.012 141 186 141"/><path fill="#7CECF9" d="m280 202 3 3c-1 3-1 3-2.602 4.063l-2.023.937-2.164 1.016A416 416 0 0 1 267 215c-.125-2.625-.125-2.625 1-6 3.717-2.842 7.826-4.913 12-7"/><path fill="#2EBDE6" d="m191.625 136.75 2.313-.062c5.592-.04 5.592-.04 8.085 1.828L203 140c-3.01.934-3.867 1.044-7 0-7.712-.697-13.46-.214-20 4l-3 1.75-2 1.25c0-3 0-3 1.813-5.187C175 140 175 140 178 140v-2c4.553-1.125 8.964-1.218 13.625-1.25"/><path fill="#08307F" d="M218 224c4.288.476 6.266 1.659 9 5v2h2l1.938 2c1.942 2.348 1.942 2.348 5.062 2a760 760 0 0 1 2.063 5.875l1.16 3.305C240 247 240 247 239 249c-4-5.5-4-5.5-4-10h-2v-2l-1.75-.812c-2.306-1.217-4.27-2.491-6.25-4.188v-2l-1.812-.875C221 228 221 228 218 226z"/><path fill="#1266A0" d="M210.313 139.938c2.447 1.878 4.59 3.804 6.687 6.062l-1 2-2.5-2.937c-3.612-3.673-6.458-3.89-11.5-4.063v-2c-2.453-1.226-4.05-1.114-6.79-1.098l-2.85.01-2.985.025-3.008.014q-3.683.018-7.367.049c7.56-7.56 23.267-2.768 31.313 1.938"/><path fill="#046FED" d="M172 184h4l2 3h3l2-3 6 7h-2l-1 3-7-1v-2h-2v-2h-2v-2h-2z"/><path fill="#0D3E94" d="M337 295c4.836 4.443 6.184 10.004 6.5 16.375-.164 5.882-1.982 10.895-5.5 15.625-2.172 1.277-2.172 1.277-4 2l1-5h3v-4h2c.081-2.563.14-5.124.188-7.687l.076-2.186c.064-4.705-.683-7.26-3.264-11.127z"/><path fill="#1490E0" d="m273 201 2 1-2 3h-3l-.375 1.688c-.625 2.312-.625 2.312-1.75 4.5-1.263 4.06-.543 7.668.125 11.812l-5-2c-.582-4.506-.985-8.39 1.453-12.375 2.656-3.035 5.183-5.382 8.547-7.625"/><path fill="#0782EF" d="M202 141c7.45-.366 7.45-.366 9.875 1.25L213 144l1.25 1.688c1.166 3.593.367 6.608-.25 10.312h-2l-.918-2.012c-2.474-5.214-4.687-9.22-9.082-12.988"/><path fill="#0153DC" d="m180.445 328.32 2.68.805 2.695.758C188 331 188 331 188.867 332.993 189 335 189 335 188 337c-4.755.743-7.56-1.268-11.426-3.71L175 332v-2c3-2 3-2 5.445-1.68"/><path fill="#0A3F8C" d="m165 292 1 2-.898 2.633c-1.233 3.767-1.544 7.318-1.727 11.242l-.117 2.086q-.138 2.52-.258 5.039h2v7l2 1c.625 2.563.625 2.563 1 5-4.43-3.514-5.893-7.617-7-13-.773-7.763.068-14.754 3-22z"/><path fill="#39C9FE" d="M311 279c7.254 1.053 13.247 8.765 17.563 14.25 2.02 2.846 3.214 5.186 3.437 8.75-3.035-2.919-5.648-6.004-8.25-9.312-3.466-4.295-7.043-7.963-11.316-11.446L311 280z"/><path fill="#1BA9E9" d="M178 138v2l-3 1-2 3h-2l.188 2.125C171 149 171 149 169.5 151.688c-2.036 4.496-1.76 8.453-1.5 13.312l-2-1c-.484-2.766-.484-2.766-.75-6.25l-.297-3.453c.067-4.723 1.458-7.414 4.047-11.297h2v-2c4.385-3 4.385-3 7-3"/><path fill="#062C79" d="M212 287v3l-2 2c-.32 3.013-.485 5.12 1 7.813 4.318 2.563 10.081 2.34 15 2.187-4.291 2.86-8.395 2.513-13.3 1.547A171 171 0 0 1 207 302v-13z"/><path fill="#33C6FD" d="m182 281 1 2-1.348 1.195c-1.913 2.09-2.9 4.113-4.09 6.68-1.831 3.797-3.771 6.935-6.562 10.125l-1 2h-2c.435-4.61.678-6.856 4-10 1.812-2.541 3.545-5.129 5.281-7.723C179 283 179 283 182 281"/><path fill="#0573E9" d="m231 221 1.645.875 2.167 1.125 2.145 1.125c2.132 1.072 2.132 1.072 5.043.875l-1.457 1.64c-1.856 2.839-2.03 4.748-2.23 8.11l-.2 2.984L238 240c-2-1-2-1-2.852-2.926l-.773-2.387c-.26-.78-.52-1.56-.79-2.363C233 230 233 230 233 226a78 78 0 0 0-2-5"/><path fill="#036DED" d="m296 170 10 1c1.228 5.404 1.228 5.404.188 8.125L305 181l-1.125 2.25L303 185l-2-1 1-9-7-2z"/><path fill="#27A1D3" d="M309 139c-2.578 1.719-5.032 3.034-7.812 4.375-2.987 1.467-5.792 2.943-8.5 4.875-2.675 1.742-4.548 2.38-7.688 2.75v-2h2v-2c6.595-5.503 13.325-8.423 22-8"/><path fill="#0C81E5" d="M246.188 296.875 250 297v3l-3.437.813c-3.95.976-7.754 2.232-11.583 3.601C233 305 233 305 230 305v-4l1.863-.367 2.45-.508 2.425-.492c3.704-1.036 5.449-2.89 9.45-2.758"/><path fill="#7FEFFD" d="M293 289c1.89.234 1.89.234 4 1 2.328 4.204 3.463 9.213 3 14-2.312-.5-2.312-.5-5-2-2.14-3.592-3.121-6.837-2.687-11z"/><path fill="#27C4FD" d="m318 139 7 2-1 2c-2.062.625-2.062.625-4 1l-1-2-1.645 1.934-2.168 2.504-2.144 2.496C311 151 311 151 308 152v-2l2.313-1.812c2.723-2.217 3.942-4.197 5.687-7.188h2zm-12 13 2 1Zm-2 4-7 6c0-3 0-3 1-6 2.575-.997 3.49-1.255 6 0"/><path fill="#072F8B" d="m320 205 4 1c-6.463 6.903-13.336 12.515-21 18l-1-3h3v-4l2.117-.918 2.758-1.27 2.742-1.23c2.848-1.89 3.44-3.355 4.383-6.582h3z"/><path fill="#0356DD" d="m225 268 1 2c-1.375 2.5-1.375 2.5-3 5l-1 2h-2v2h-2l-1 4h-3l-.375 1.938L213 287l-2 1c.379-5.431 2.079-7.366 6-11l.938-2c1.664-3.133 4.284-4.826 7.062-7"/><path fill="#043FC3" d="M264 233h1v8h-2v4l2-1-.187 3.25c.192 3.859.584 5.038 3.187 7.75l-1 2-2.25-2.875c-2.028-2.45-3.708-3.998-6.75-5.125.937-3.1 1.87-5.788 3.563-8.562 1.491-2.53 2.025-4.551 2.437-7.438"/><path fill="#0284F2" d="m282 260-1 5h-2l1.438 2.625c1.494 3.229 2.144 5.865 2.562 9.375l-2 1-.332-1.934-.48-2.503-.458-2.497L279 269l-3-1-1-7c3.625-2.125 3.625-2.125 7-1"/><path fill="#5CE5FD" d="m194 139 4 2c-6.245 7.724-16.115 13.545-26 15 2.355-3.533 3.25-3.599 7.188-4.75 5.048-1.703 7.984-3.78 11.472-7.762C192 142 192 142 194 141z"/><path fill="#067FF1" d="M167 292h3c-.867 6.356-1.93 12.676-3 19-2.031-1.668-2.926-2.512-3.328-5.156l.078-2.344c.015-.773.03-1.547.047-2.344C164 299 164 299 165 296h2z"/><path fill="#0948B6" d="M169 326h2l1 3 5-2v3h-2c1.4 2.8 3.614 3.513 6.309 4.902C183 336 183 336 185 339c-7.21-1.752-11.762-4.79-17-10z"/><path fill="#1BB9FD" d="m280 266 2 1v2l2.688-.687C288 268 288 268 290.813 269c3.011 2.753 2.962 5.03 3.187 9-3-1-3-1-4.187-3.062L289 273l-6 1c-3-5.75-3-5.75-3-8"/><path fill="#42D0FB" d="m280 208 1 3c-3.577 2.632-7.023 5.012-11 7l-1 2h-2l-1-6 1.938-.75c4.062-1.658 8.06-3.454 12.062-5.25"/><path fill="#0B75F6" d="M209 328c3.625.375 3.625.375 7 1-4.139 4.139-10.826 4.138-16.437 4.25-5.344-.09-10.38-.99-15.563-2.25v-1c4.29-.071 7.85-.037 12 1 1.336-.322 2.669-.658 4-1l3.625.063c3.449.326 3.449.326 5.375-2.063"/><path fill="#045DE3" d="M165 320c3.83.295 6.352.53 9.5 2.813C176 325 176 325 175.75 327.25L175 329h-4v-3l-1 2h-2c-3-5.75-3-5.75-3-8m6 4 1 2Z"/><path fill="#072E80" d="M240 249c2.763.523 5.326 1.109 8 2v2l8 1 .813 3.25c1.05 3.315 1.933 5.189 4.187 7.75-2.867-1.285-4.976-2.571-7-5v-2h-2v-2h-2v-2l-2.75-.25c-3.65-.842-4.884-1.929-7.25-4.75"/><path fill="#5DE3FC" d="m167 155 1 2 4-1v15c-3.72-2.48-3.969-3.717-5-8-.15-2.693-.093-5.299 0-8"/><path fill="#20ADEE" d="M190 266c-1.441 4.478-3.738 7.214-6.937 10.625l-2.653 2.852A247 247 0 0 1 175 285c2.144-9.29 2.144-9.29 5.563-12.125C183 272 183 272 185 272v-4c3-2 3-2 5-2"/><path fill="#014DCE" d="M299 220h6l-3 1-.375 1.957L301 225c-2.25 1.012-2.25 1.012-5 1.688-3.286.621-3.286.621-6 2.312-2 .04-4 .043-6 0l-1-2c5.717-2.45 9.79-3.333 16-3z"/><path fill="#069DF8" d="M243 216c2.169.506 4 1 6 2v2l6 2-1 3-2.062-1.062c-3.647-1.164-6.223-.666-9.938.062 0-2.84.403-5.237 1-8"/><path fill="#2AC1F0" d="m216.063 241.125 2.597.258c2.623.692 3.637 1.551 5.34 3.617l-1 2-3-2c-6.257-.615-9.113.09-14 4 .321-2.973.545-4.56 2.73-6.676 2.772-1.617 4.176-1.57 7.333-1.199"/><path fill="#096BCA" d="M236 204v1h-8c-.234 4.79-.234 4.79 2 9v3h2l2 6c-4.028-2.069-6.221-3.787-8-8-.416-3.864-.238-7.285 1-11 3.069-1.534 5.7-.55 9 0"/><path fill="#0B55AB" d="M272 264h3l1 4 4 1c2.296 9.41 2.296 9.41 2 14-2.058-3.086-3.802-6.236-5.562-9.5l-1.88-3.469C273 267 273 267 272 264"/><path fill="#29BAFE" d="m314 185-11 10-3-4c9.254-8.373 9.254-8.373 14-6"/><path fill="#48D6FC" d="M309 139h9v2l-2.437.813L313 143l-1 3c-1.523 1.605-1.523 1.605-3.375 3.188l-1.836 1.605C305 152 305 152 302 152v2l-2-1c1-2 1-2 2.86-2.898 2.438-1.255 3.666-2.611 5.39-4.727l1.578-1.914L311 142z"/><path fill="#063C9E" d="M266 243h3v2l9 3v2l2.188.688c3.344 1.56 5.328 3.615 7.812 6.312-3.598-1.336-6.743-2.975-10-5l-2-1v-2l-2.25-.375c-2.551-.58-4.477-1.362-6.75-2.625l-1 2c-.562-1.937-.562-1.937-1-4z"/><path fill="#62DDFC" d="M230 206c2.938.188 2.938.188 6 1 1.375 2.063 1.375 2.063 2 4h-2v2h-7c-.043-2-.04-4 0-6z"/><path fill="#092C78" d="M232 250c3.132 2.563 4.114 5.085 5 9 .11 6.769-1.875 9.688-6.504 14.531L229 275l-2-1 1-3 4-2 1-3h2a340 340 0 0 0-.375-4.312c-.07-.801-.14-1.602-.21-2.426-.31-2.534-.31-2.534-2.415-5.262z"/><path fill="#028EF2" d="m311 187 1 2-1 2h-2v2c-3.327 3.718-6.814 6.372-11 9l-2-1c1.133-3.4 1.852-3.877 4.688-5.875 3.573-2.575 6.956-5.273 10.312-8.125"/><path fill="#6FEDFE" d="M184 139h10l1 3-2.062 1.125c-2.416 1.542-4.23 3.015-6.313 4.938-3.401 3.012-6.202 4.034-10.625 4.937v-2c.603-.23 1.207-.461 1.828-.7 4.937-2.014 8.256-3.609 11.172-8.3v-1l-5-1z"/><path fill="#05245F" d="m249.75 295.313 2.36.238L254 296l1 2-2.633-.105c-6.455-.152-10.652-.07-16.367 3.105-3.322.544-6.64.807-10 1 2.823-1.882 5.204-2.92 8.375-4.062l2.836-1.036c4.351-1.407 7.977-2.102 12.539-1.59"/><path fill="#44D2FC" d="m290 276 1.875 1.938c1.901 2.214 1.901 2.214 4.25 2.5.619.185 1.238.37 1.875.562 1.25 2.563 1.25 2.563 2 5l-3-1v-2l-3.812.188c-3.902 0-3.902 0-6.188-1.5-1-1.688-1-1.688-1-4.688 2-1 2-1 4-1"/><path fill="#0362E6" d="M259 239c1 2 1 2 .313 4.438-1.499 2.925-2.392 4.062-5.313 5.562-3.75.188-3.75.188-7 0v-3l1.863-.516c5.11-1.451 5.11-1.451 9.2-4.672z"/><path fill="#5ADEFE" d="M296 306c2.805 2.478 4.33 5.203 6.063 8.5 1.555 2.944 3.088 5.727 4.937 8.5-2.954-.317-3.959-.958-6.062-3.125C297.866 315.317 296 311.538 296 306"/><path fill="#056BDF" d="m328 292 8 1 1 4h-3l1 6-2 1q-1.256-2.434-2.5-4.875l-1.406-2.742C328 294 328 294 328 292"/><path fill="#0A3E8E" d="M298 322h2l1 2c2.314.73 4.648 1.401 7 2v3l4 1v3c-5.432-1.325-9.245-3.934-13-8z"/><path fill="#69E7FE" d="M247 225h7l-2 1a101 101 0 0 0-2 6l-7 1c.569-3.3 1.547-4.76 4-7z"/><path fill="#0F71AC" d="m291 193 1 2h-2v2l-2.687.875c-3.236 1.04-3.236 1.04-5.938 2.313-2.69.92-3.722.601-6.375-.188 10.374-6.704 10.374-6.704 16-7"/><path fill="#0979F7" d="M250 300h2c1.686 2.578 2.008 3.875 1.813 7-.823 3.039-1.643 4.743-3.813 7h-2c.964-9.41.964-9.41 2-14"/><path fill="#082675" d="M301 226c-9.35 5.85-16.264 6.792-27 6v-1l3.21-.367 4.165-.508 2.117-.238c4.199-.44 4.199-.44 7.508-2.887 6.384-2.205 6.384-2.205 10-1"/><path fill="#21A1DB" d="m283 151 2 1-1 2.313c-1.174 2.678-1.174 2.678-1 5.687l3-1 4 1-9 2-1 4c-1-1-1-1-1.062-4.062L279 159h2v-6h2z"/><path fill="#0E77DB" d="M297 315h2l1.75 2.75c2.404 3.472 4.689 5.065 8.25 7.25v1l-8-1-1-3-2-1c-1-1-1-1-1.062-3.562z"/><path fill="#16AFEE" d="M288 284c4.446 6.668 7.942 14.899 7 23h-2l-.113-1.828-.2-2.422-.175-2.39c-.356-2.443-.356-2.443-2.012-4.329-1.852-2.508-1.985-4.197-2.187-7.281l-.2-2.703z"/><path fill="#36CEFA" d="m201 263 3 1c-3.113 4.003-5.55 6.49-10 9a89 89 0 0 0-4 4l-1-4 2.75-1.687c3.107-2.211 4.972-4.302 7.25-7.313z"/><path fill="#0792F5" d="M306 187c-5.095 4.065-10.084 7.253-16 10v-2h2v-3h5l.188-1.875C298 188 298 188 300.375 186.688 303 186 303 186 306 187"/><path fill="#2FC5FE" d="M204 143c4.496 3.038 6.34 5.836 8 11-.43 2.219-.43 2.219-1 4l-.734-1.934-1.016-2.504-.984-2.496c-1.085-2.251-1.085-2.251-3.407-2.851L203 148l-1 3c-.687-1.75-.687-1.75-1-4 1.438-2.25 1.438-2.25 3-4"/><path fill="#25B9FD" d="m173 298 2 2-2 3h-2l-2 11c-2-2-2-2-2.195-4.164l.07-2.461.055-2.477L167 303h3l.938-1.937C172 299 172 299 173 298"/><path fill="#26C1FB" d="M189 279c.75 1.75.75 1.75 1 4-1.937 2.25-1.937 2.25-4 4l-3-2-.125 1.688c-1.344 3.552-3.885 5.022-6.875 7.312 1.367-3.986 3.051-6.964 6-10h4v-2c1.5-1.625 1.5-1.625 3-3"/><path fill="#0A4985" d="M210 240c10.748-.626 10.748-.626 15.5 1.75 2.247 2.022 4.443 4.035 6.5 6.25l-1 2-1.937-2.312c-4.488-4.463-10.433-5.854-16.625-5.875L209 242z"/><path fill="#4BDEFD" d="m184 151 2 1c-1.312 1.5-1.312 1.5-3 3h-3v2l-2.875 1.375c-3.128 1.427-3.128 1.427-5.125 3.625v-6l2.117-.84 2.758-1.097 2.742-1.09c2.344-.922 2.344-.922 4.383-1.973"/><path fill="#BDFBFD" d="m177 142 2 1-5 6 6-2c-2.135 3.202-3.628 4.273-7 6h-3c.14-3.017.294-5.238 2.402-7.512 1.487-1.22 3.04-2.36 4.598-3.488"/><path fill="#3DBFFD" d="M232 306c-.75 1.938-.75 1.938-2 4-3.083 1.101-6 1.105-9.25 1.063l-2.703-.028L216 311c2.861-1.907 5.353-3.004 8.563-4.187l2.94-1.106C230 305 230 305 232 306"/><path fill="#2BBFEE" d="m201 252 2 1c-7.298 8.446-7.298 8.446-11 12 .557-3.344 1.352-6.033 3-9h3v-3z"/><path fill="#0233AF" d="M257 249c3.466.285 4.763.758 7.238 3.285l2.075 2.778 2.113 2.785L270 260l-2 2-1.207-1.715-1.606-2.223-1.582-2.214c-2.341-2.695-5.247-3.038-8.605-3.848z"/><path fill="#4DD8FD" d="m254 225 1 3h-2v5l-3 1v2l-4 2-3-2h3l.875-1.937C248 232 248 232 250 231l1-2.5c1-2.5 1-2.5 3-3.5"/><path fill="#0B2969" d="M217 148c4.348 3.755 5.243 8.257 5.688 13.813.352 4.919.152 9.336-.688 14.187h-1l-1-21h-2z"/><path fill="#093194" d="M250 322c-6.03 4.923-6.03 4.923-10.937 5.313L236 327l3-1v-3c6.964-2.277 6.964-2.277 11-1"/><path fill="#0D569D" d="M282 283c1.887.598 1.887.598 4 2 1.082 2.934 1.082 2.934 1.813 6.438l.769 3.496C289 298 289 298 288 301a3015 3015 0 0 1-3-7.875l-.867-2.262C282 285.227 282 285.227 282 283"/><path fill="#068EFA" d="m258 238 2 1c-4.233 5.744-4.233 5.744-8 7-2.75.125-2.75.125-5 0v2l-2-1c3.487-3.874 8.144-7.092 13-9"/><path fill="#0F9AFA" d="m271 220 3 1-2 1 1 2h3l1 2h9c-3.702 2.468-6.705 2.68-11 2-5.5-3-5.5-3-7-6z"/><path fill="#5ADAF4" d="m286 150 3 1-3 5 10-2v2c-4.537 1.452-8.18 2.235-13 2 1.875-6.875 1.875-6.875 3-8"/><path fill="#0992F3" d="M311 137a609 609 0 0 1 6.313-.125l3.55-.07C324 137 324 137 327 139l-1 3-2.437-.937c-4.185-1.249-8.226-1.697-12.563-2.063z"/><path fill="#1491FD" d="M197 302c1.5 1.375 1.5 1.375 3 3v2c6.234 1.984 12.542 3.003 19 4v1c-7.43.487-13.24-.834-20-4l-2-2z"/><path fill="#0B3585" d="m277 169 8 4v2h14v1c-2.73.135-5.455.234-8.187.313l-2.33.126c-4.365.094-5.97-.037-9.534-2.834C277 171 277 171 277 169"/><path fill="#08398D" d="M234 234c2 1 2 1 3.105 3.652l1.083 3.286 1.105 3.277C240 247 240 247 239 249c-4-5.5-4-5.5-4-10h-2z"/><path fill="#092B7D" d="m341 181 1 2c-1.328 2.531-1.328 2.531-3.25 5.5l-1.89 2.969C335 194 335 194 332 196v-5h3l.375-1.812C336 187 336 187 338 184h2z"/><path fill="#0C9BFD" d="m204 282 3 1-1.426 1.398c-4.905 5.14-7.085 9.68-8.574 16.602h-1v-10l4-2c1.283-2.538 1.283-2.538 2-5h2z"/><path fill="#18B4FB" d="m290 162 2 1c-2.234 3.351-3.262 4.816-7.25 5.813L282 169v-4l3.438-.937c3.35-.692 3.35-.692 4.562-2.063"/><path fill="#9EF9FD" d="M300.063 143.938 303 144c-.062 2.25-.062 2.25-1 5-2.246 1.817-4.326 2.78-7 4l-2-1c1.375-1.5 1.375-1.5 3-3h2v-3l-2-1c1-1 1-1 4.063-1.062"/><path fill="#0379F8" d="m246 303 2 4c-1.062 1.5-1.062 1.5-3 3-3.687.188-3.687.188-7 0a91 91 0 0 1 4-4h2v-2z"/><path fill="#08297E" d="m226 277-11 10-2-1 1-3 3-1 1-3h2v-2c2-1 2-1 6 0"/><path fill="#083C93" d="M264 221c5.75 2.75 5.75 2.75 8 5v3h2v2c-5.017-1.433-7.015-3.906-10-8z"/><path fill="#0594FB" d="m230 214 1 2 1.938.875c2.482 1.354 3.03 2.547 4.062 5.125h2l1 3-2 1c-5.571-5.143-5.571-5.143-6-9h-2z"/><path fill="#25AEE9" d="M284 198v2c-2.047 1.438-2.047 1.438-4.75 3l-2.672 1.563A132 132 0 0 1 270 208v-3l3-1 2-3c6.222-3 6.222-3 9-3"/><path fill="#18A8FD" d="m318 178 3 1c-4.827 4.933-8.06 6.756-15 7 2.133-3.2 2.571-3.46 6-4.562 2.766-.9 3.892-1.33 6-3.438"/><path fill="#065098" d="m280 155 1 4h-2c.95 3.354 1.897 6.692 3 10h-3l-1-3-2 3c-.5-6.118.751-9.025 4-14"/><path fill="#062D78" d="M226 205c1 2 1 2 .813 5.563-.09 4.446 1.342 7.627 3.312 11.554C231 224 231 224 231 226c-3-1-3-1-4.125-2.875-1.627-3.951-2.01-6.992-2-11.25l-.008-3.258C225 206 225 206 226 205"/><path fill="#0457D9" d="M250 297h2v2h2c3.053 4.07 3.053 4.07 2.875 7.188C256 308 256 308 253 310l.063-2.75c-.052-2.677-.285-4.72-1.063-7.25h-2z"/><path fill="#053FAA" d="M259 223c2.5 1.313 2.5 1.313 5 4 .564 3.709.56 7.29 0 11l-2 2-.148-2.195c-.404-5.22-.865-9.903-2.852-14.805"/><path fill="#7CEFFC" d="m307 142 2 2c-5.143 5.571-5.143 5.571-9 6l2-2c.643-2.069.643-2.069 1-4l-4-1c2.763-1.381 4.947-1.19 8-1"/><path fill="#0B53CF" d="M228 247c3.418 2.003 5.015 4.27 6.473 7.95.94 3.657.756 7.305.527 11.05h-1v-7h-2l-1 2-.148-2.047-.227-2.703c-.07-.882-.14-1.763-.21-2.672-.414-2.569-1.127-4.336-2.415-6.578"/><path fill="#083189" d="M207 215c5.05.446 7.476 2.558 11 6v3h-2v-2l-1.687-.687c-2.945-1.672-4.995-3.866-7.313-6.313"/><path fill="#11B2F4" d="M184 137q3.906-.118 7.813-.187l2.236-.077c5.5-.074 5.5-.074 7.963 1.776L203 140c-3.01.934-3.867 1.044-7 0v-2h-12z"/><path fill="#47CEFA" d="M239 227c1.563 1.625 1.563 1.625 3 4-.312 3.25-.312 3.25-1 6l-3 1a585 585 0 0 1-.062-4.375l-.036-2.46C238 229 238 229 239 227"/><path fill="#0A63DB" d="M277 164c2 2 2 2 4 5 3.557 1.219 3.557 1.219 7 2l-1 2c-4.113-.467-7.111-.89-10-4-.25-2.687-.25-2.687 0-5"/><path fill="#136187" d="M178 138v2l-3 1-2 3h-2l-1 4-4 1 3-6h2v-2c4.385-3 4.385-3 7-3"/><path fill="#07307A" d="M334 330c-7.024 4.407-12.826 4.449-21 4v-1l14-1v-2c3.01-.934 3.867-1.044 7 0"/><path fill="#096FEF" d="m231 321 3 2a1014 1014 0 0 1-6.75 3l-1.922.867C221.916 328.36 219.792 329 216 329c1-2 1-2 2.96-2.852l2.415-.773c.791-.26 1.583-.52 2.398-.79C226 324 226 324 229 324v-2z"/><path fill="#0A82FD" d="M333 304h1c.081 1.916.14 3.833.188 5.75l.105 3.234c-.322 3.316-1.064 4.606-3.293 7.016-.125-5.75-.125-5.75 1-8v-3.562c0-3.438 0-3.438 1-4.438"/><path fill="#0E3D99" d="m207 298 1.691 1.457c2.606 1.741 4.15 2.016 7.246 2.23l2.528.2c2.516.112 5.017.136 7.535.113-4.291 2.86-8.395 2.513-13.3 1.547A171 171 0 0 1 207 302z"/><path fill="#08437E" d="m165 149 1 2-.93 2.695c-1.165 3.599-1.272 6.412-1.195 10.18l.055 3.492L164 170c-2.75-2.75-2.3-4.416-2.312-8.25.062-5.137.41-8.518 3.312-12.75"/><path fill="#0771F4" d="M241 313h3v2l4-1c-2.773 3.08-5.063 4.688-9 6z"/><path fill="#0A3F90" d="M317 278c3.039 1.41 5.594 3.089 8.25 5.125l2.14 1.633L329 286l-2 1c-2.625-.937-2.625-.937-5-2v-3l-5-1z"/><path fill="#0A42B3" d="M224 218c3.013 1.507 3.61 4.032 5 7h3l1 4c-2.875-.187-2.875-.187-6-1-1.827-3.132-2.39-6.445-3-10"/><path fill="#014DD6" d="m327 195 1 4h-4v2a159 159 0 0 1-6 5l-2-1q1.903-1.942 3.813-3.875l2.144-2.18C324 197 324 197 327 195"/><path fill="#093E83" d="M164 171h3v5h2a101 101 0 0 1 3 6l-1 2c-7-8.105-7-8.105-7-13"/><path fill="#0B97F0" d="M165 155h1l.148 1.898.227 2.477c.07.812.14 1.624.21 2.46.244 2.368.244 2.368 2.415 4.165v3c-1.95-.652-1.95-.652-4-2-.645-2.566-.645-2.566-.812-5.562l-.208-3.004C164 156 164 156 165 155"/><path fill="#0A73E6" d="M244.043 296.707 250 297v3h-11c3-3 3-3 5.043-3.293"/><path fill="#0B5BBD" d="M326 286c4.419 1.35 6.343 3.261 9 7-6.152-.586-6.152-.586-8-1l-1-2 2-1-2-1z"/><path fill="#0A469A" d="M306 270h2v2l2.25.75c2.951 1.341 4.598 2.86 6.75 5.25l-10-3z"/><path fill="#26C2FA" d="m241 235 2.813 1c3.107 1.15 3.107 1.15 6.187 1-2 2-2 2-5.625 2.125L241 239v2l-3-1c0-2 0-2 1.5-3.625z"/><path fill="#0E88FA" d="M214 203c2.296 3.445 2.54 5.938 3 10l-7-5 1-3v2h3z"/><path fill="#44D1FA" d="m292 198 1 3c-1.977.73-3.98 1.394-6 2-2-1-2-1-3-4 2.709-1.354 5.01-1.065 8-1"/><path fill="#0062E5" d="M296 170c2.875-.125 2.875-.125 6 0 2 2 2 2 2 5l-9-2z"/><path fill="#0878E5" d="M223 244c1.813.188 1.813.188 4 1 1.813 2.375 1.813 2.375 3 5l-1 3c-5.571-5.143-5.571-5.143-6-9"/><path fill="#62E1FA" d="M219 244q2.528 1.454 5 3v1c-3.657 1.055-7.307 2.077-11 3z"/><path fill="#27BEFD" d="m238 209 2 1c-.187 1.875-.187 1.875-1 4-2.25 1.375-2.25 1.375-5 2-2.812-.875-2.812-.875-5-2v-1h7v-2h2z"/><path fill="#0B3B8A" d="M172 184h4l2 5h2l1 4h-2v-2h-2v-2h-2v-2h-2z"/><path fill="#0C52C4" d="M285 174q4.219-.04 8.438-.062l2.431-.026c2.044-.009 4.088.036 6.131.088 1 1 1 1 1.063 4.063L303 181l-.875-1.937c-.953-2.215-.953-2.215-3.125-3.063-2.371-.23-4.747-.411-7.125-.562l-3.883-.254L285 175z"/><path fill="#016DF1" d="m216 156 3 1c.25 2.313.25 2.313 0 5-2 1.813-2 1.813-4 3-.098-6.152-.098-6.152 0-8z"/><path fill="#CCFEFE" d="m298 145 1 2c-2.834 3.254-4.686 4.52-9 5 1.584-3.167 2.453-4.733 5.688-6.312z"/><path fill="#48CEF9" d="m182 281 1 2-1.3 1.238c-1.814 1.88-3.338 3.849-4.887 5.95l-1.606 2.167L174 294l-2-1a804 804 0 0 1 3.313-4.875l1.863-2.742C179 283 179 283 182 281"/><path fill="#2FC0F1" d="M190 266c-1.432 5.011-3.984 6.945-8 10l1-4h2v-4c3-2 3-2 5-2"/><path fill="#048DF9" d="m282 260-1 5-5-2v-3c3-1 3-1 6 0"/><path fill="#045AD3" d="m238 240 1.688 2.25c2.242 2.667 4.533 4.666 7.312 6.75h-7z"/><path fill="#0CA8FB" d="m240 211 5 5h-2l1 4-4-1z"/><path fill="#34C7FC" d="m178 174 1 3 3 1 1 6a707 707 0 0 1-3.437-2.875l-1.934-1.617C176 178 176 178 175 176h3z"/><path fill="#0696F3" d="M202 141c2.813-.25 2.813-.25 6 0 1.875 2 1.875 2 3 4l-2 4-1.812-2.312c-1.658-2.036-3.291-3.886-5.188-5.688"/><path fill="#166CA3" d="M311 136v3l-13 2c1.275-2.55 2.185-2.66 4.813-3.625.687-.26 1.374-.52 2.082-.79C307 136 307 136 311 136"/><path fill="#4DDAFE" d="M302 287h2q.079 3.124.125 6.25l.07 3.516c-.185 3.062-.587 4.676-2.195 7.234q-.29-3.969-.562-7.937l-.17-2.288c-.13-1.922-.203-3.849-.268-5.775z"/><path fill="#0362E9" d="M261 260c2.875.688 2.875.688 6 2 1.375 2.625 1.375 2.625 2 5l-5-2v-2h-3z"/><path fill="#16A3EB" d="m213.277 240.918 2.66.27 2.653.23c2.696.651 3.68 1.464 5.41 3.582l-1 2-3.062-2c-3.719-2.155-6.627-2.352-10.938-2 2-2 2-2 4.277-2.082"/><path fill="#47D8FD" d="M296 157c-3.033 2.022-4.087 2.293-7.562 2.563-3.345.252-3.345.252-6.438 1.437l1-4q2.123-.294 4.25-.562l2.39-.317c2.365-.121 4.111.183 6.36.879"/><path fill="#ABFAFE" d="M182.945 139.805 189 140v3c-2 1.688-2 1.688-4 3l-2-1 3-4-7 1c2-2 2-2 3.945-2.195"/><path fill="#93F8FD" d="m294 294 3 1 1 7h-3c-1.354-2.709-1.065-5.01-1-8"/><path fill="#0B4B94" d="M296 263q2.224 1.178 4.438 2.375l2.496 1.336C305 268 305 268 306 270c-3.574-.325-5.557-.639-8.375-2.937C296 265 296 265 296 263"/><path fill="#0D40B5" d="M299 220h6l-3 1-.312 1.938L301 225c-3.062 1.25-3.062 1.25-6 2v-3h4z"/><path fill="#49D0FB" d="m236 208 2 1v2h-2v2h-7l1-3h6z"/><path fill="#052373" d="M331 196c0 3 0 3-1.531 4.605l-1.969 1.583-1.969 1.605L324 205v-6l2.938-.937c2.903-.758 2.903-.758 4.062-2.063"/><path fill="#0B3577" d="M241 298c-2.252 2.252-3.33 2.515-6.375 3.188l-2.336.542c-2.4.283-4.006.005-6.289-.73 5.103-1.905 9.463-3.426 15-3"/><path fill="#20BEFC" d="m227 250-1 3c-3 1-3 1-7 1l-2-1c2.705-3.818 5.62-3.248 10-3"/><path fill="#4CD7F9" d="M250 223a88 88 0 0 1 4 2l-3.75-.062c-2.914-.006-5.46.132-8.25 1.062v-2c3.09-1.876 4.596-2.276 8-1"/><path fill="#0B3497" d="m320 205 4 1c-2.312 2.5-2.312 2.5-5 5h-3l1-4h3z"/><path fill="#0865EC" d="M328 192v3c-1.531 1.387-1.531 1.387-3.5 2.688l-1.969 1.324L321 200v-4z"/><path fill="#073580" d="m299 176 3 1c.125 6.625.125 6.625-1 10l-3-1 1.063-3.312c1.267-3.597 1.267-3.597-.063-6.688"/><path fill="#0E4896" d="M336 142c2 1.375 2 1.375 4 3v2h2l1 4h-2v-2l-4-1z"/><path fill="#7FF4FE" d="M184 139h10l1 3-6 1v-2l-5-1z"/><path fill="#30BFFD" d="M309.438 322.75c2.42 1.181 3.82 2.233 5.562 4.25-4.22-.48-6.797-1.166-10-4 2-1 2-1 4.438-.25"/><path fill="#119BF5" d="M244 300h6v4c-4 0-4 0-6-1z"/><path fill="#0A92EC" d="M167 292h3c-.494 4.278-1.048 7.096-3 11z"/><path fill="#019AEF" d="M321 290q1.758 1.428 3.5 2.875l1.969 1.617L328 296v2c-4.651-1.469-4.651-1.469-6.312-4-.688-2-.688-2-.688-4"/><path fill="#09538F" d="m177 274 2 1c-1.074 2.915-1.778 4.778-4 7l-3-1z"/><path fill="#099EFA" d="M250 243v2h-3l-1 2h-3v-4c3.133-1.044 3.99-.934 7 0"/><path fill="#047BF9" d="m171 174 4 2-1 6h-2c-1.354-2.709-1.065-5.01-1-8"/><path fill="#4ADBFE" d="M198 140c4.875 1.75 4.875 1.75 6 4l-2.25-.687c-2.81-.608-2.81-.608-5.062 1.125L195 146l-2-1z"/><path fill="#0F389B" d="M252 297c4.875 1.875 4.875 1.875 6 3 .04 2 .043 4 0 6-4-4.75-4-4.75-4-7h-2z"/><path fill="#098BEE" d="m282 273 2 1c.414 2.285.414 2.285.625 5.063l.227 2.785L285 284l-3-1z"/><path fill="#1CB4FC" d="M304 273c3.937 1.312 6.227 2.92 9 6l-1 2h-2a263 263 0 0 1-4-5l-2-1z"/><path fill="#0DADFB" d="m226 252 3 1v5l-3 1a129 129 0 0 1-1-6z"/><path fill="#B4FCFE" d="m249 228-1 4-5 1c.375-1.937.375-1.937 1-4 2-1 2-1 5-1"/><path fill="#18B9FD" d="m239 212 1 3c-1.25 1.563-1.25 1.563-3 3-2.325-.282-3.909-.954-6-2l1-2 1.813.563c2.351.658 2.351.658 5.187-.563z"/><path fill="#37CFFD" d="m199 143 4 1c-3.2 2.743-6.005 4.63-10 6z"/><path fill="#3FCFFA" d="M171 295c.93 2.606 1.15 3.642.063 6.25L170 303h-2c.256-2.343.593-4.678 1-7z"/><path fill="#07A0FC" d="M289 294c2.063 1.75 2.063 1.75 4 4-.25 2.25-.25 2.25-1 4-1.5-1.187-1.5-1.187-3-3-.187-2.687-.187-2.687 0-5"/><path fill="#2AC4FA" d="M303 280c2 2 2 2 2 5l2 1-1 4v-2l-3-1a129 129 0 0 1-1-6z"/><path fill="#0D4AC6" d="M215.563 280.938 218 281l-1 2h-3l-.375 1.938L213 287l-2 1c1.04-6.977 1.04-6.977 4.563-7.062"/><path fill="#073176" d="M272 264h3a328 328 0 0 1 1.563 3.875l.878 2.18C278 272 278 272 277 274q-1.257-1.932-2.5-3.875l-1.406-2.18C272 266 272 266 272 264"/><path fill="#0571EF" d="m253 244 1 3c-3 2-3 2-7 2v-3z"/><path fill="#99F4FE" d="M212 244h7c-3.446 5.785-3.446 5.785-6.25 6.875L211 251l1.438-1.312c1.799-1.711 1.799-1.711 2.562-4.688z"/><path fill="#95F7FE" d="m280 206-1 4h-6c3.625-4 3.625-4 7-4"/><path fill="#05275F" d="M217 148c2.726 2.355 3.988 4.54 5 8-.375 2.313-.375 2.313-1 4l-1-5h-2z"/><path fill="#0868EC" d="m338 148 3 1 1 5-4 3z"/><path fill="#1A6E93" d="m291 144 2 1c-1.187 2.438-1.187 2.438-3 5-2.687.813-2.687.813-5 1v-2h2v-2c2-1.625 2-1.625 4-3"/><path fill="#09397A" d="m293 313 3 1 .375 2.938L297 320l2 1h-3c-2.108-2.888-3-4.385-3-8"/><path fill="#1489CC" d="m184 268 1 4c-3 2-3 2-6 2 1.37-3.161 1.99-3.993 5-6"/><path fill="#07256A" d="m270 261 2 1q.062 3.5 0 7c-1 1-1 1-3.562 1.063L266 270l4-1-.562-3.437L269 262z"/><path fill="#052270" d="m316 211 2 1-8 7-2-1c2.2-3.357 4.383-5.238 8-7"/><path fill="#5FE5FC" d="m269 208 1 3c2.015.733 2.015.733 4 1l-7 3c.875-5.875.875-5.875 2-7"/><path fill="#0A399E" d="M218 210c4.8 3.446 4.8 3.446 5.813 6.25L224 218l-4-1z"/><path fill="#6AE7FB" d="m280 202 3 3-1 3h-2v-2l-3-1z"/><path fill="#23C0FC" d="m203 144 4 4-2 1-2-1-1 3c-.625-1.812-.625-1.812-1-4z"/><path fill="#0B3790" d="M175 334c6.523.492 6.523.492 8.938 3.063L185 339q-2.222-.676-4.437-1.375l-2.497-.773C176 336 176 336 175 334"/><path fill="#28BDFA" d="M303 311h1l.875 3.313c.944 3.727.944 3.727 3.125 6.687h-3c-2.133-3.199-2.59-5.23-3-9z"/><path fill="#34B7FE" d="M224.188 308.938 226 310v1h-10c5.087-3.391 5.087-3.391 8.188-2.062"/><path fill="#073879" d="m289 302 1 2h2l1 9c-2.27-2.27-2.991-3.974-4-7z"/><path fill="#061D6C" d="M234 267c0 3 0 3-2.5 5.688L229 275l-2-1c1.252-3.756 2.63-4.147 6-6z"/><path fill="#093D85" d="M288 257c3.366 1.443 5.51 3.333 8 6-4.75-.75-4.75-.75-7-3z"/><path fill="#E0FEFE" d="m209 248 1 3-3 3-3-1z"/><path fill="#3ECFFB" d="M252 231v3h-2v2l-4 2-3-2 1.715-.84 2.222-1.097 2.215-1.09c1.81-.837 1.81-.837 2.848-1.973"/><path fill="#1BA8F2" d="M248 221h6l1 4a101 101 0 0 1-6-2z"/><path fill="#135088" d="M265 208c.563 1.938.563 1.938 1 4l-1 1a70 70 0 0 0-.562 4.063L264 221h-1a351 351 0 0 1-.125-4.812l-.07-2.708C263 211 263 211 265 208"/><path fill="#0E5481" d="m273 201 2 1c-2.12 3.18-3.63 4.315-7 6l-2-1z"/><path fill="#087EE6" d="M301 321c2.954 1.372 5.44 2.989 8 5l-7-1z"/><path fill="#0C3596" d="M255 313h2c-.25 2.375-.25 2.375-1 5-2.062 1.313-2.062 1.313-4 2v-4h3z"/><path fill="#28B6FE" d="M326 294c4 1 4 1 5.313 2.875C332 299 332 299 331 302z"/><path fill="#0274F7" d="M275 261c2 1.813 2 1.813 4 4v3h-3z"/><path fill="#001C6F" d="M263 253c5.875 4.625 5.875 4.625 7 8l-2 1a466 466 0 0 1-2.5-3.375l-1.406-1.898C263 255 263 255 263 253"/><path fill="#015CE8" d="M256 254q2.514.428 5 1l-1 3h-4l-1-3z"/><path fill="#7EEFFC" d="m242 231 1 2 5-1-2 4h-4z"/><path fill="#0D7BD3" d="m255 222 4 1v5c-2-1.312-2-1.312-4-3z"/><path fill="#0483E6" d="m246 217 3 1c-.125 1.875-.125 1.875-1 4-3.062 1.25-3.062 1.25-6 2l1.438-1.25c1.725-1.932 2.128-3.232 2.562-5.75"/><path fill="#1076C7" d="M236 205h3v3l3 1-3 1-4-4z"/><path fill="#51DAF9" d="m282 200 4 1-1 3c-2.062.688-2.062.688-4 1z"/></svg>